<svg width="118" height="35" viewBox="0 0 118 35" fill="none" xmlns="http://www.w3.org/2000/svg">
<path d="M11.9822 12.8308H16.9443L9.92585 5.6077H4.96368V10.7159L11.9822 17.9389V12.8308Z" fill="#FF4600"></path>
<path d="M4.96282 0.5L0 5.60748L4.96368 10.7159V5.6077H9.92585L4.96282 0.5Z" fill="#FF4600"></path>
<path d="M26.0191 17.9376V12.8308H21.0557L19 14.9464L16.9443 12.8308H11.9822V17.9389L19 25.1613L26.0191 17.9376Z" fill="#FF4600"></path>
<path fill-rule="evenodd" clip-rule="evenodd" d="M28.0742 5.6077H9.92585L16.9443 12.8308H21.0557L28.0742 5.6077ZM33.0376 10.7145L26.0191 17.9376V27.2769H11.9822V17.9389L4.96368 10.7159V34.5H33.0376V10.7145Z" fill="#F6F8FA"></path>
<path d="M38 5.60748L33.0372 0.5L28.0742 5.6077H33.0376V10.7145L38 5.60748Z" fill="#FF4600"></path>
<path d="M28.0742 5.6077L21.0557 12.8308H26.0191V17.9376L33.0376 10.7145V5.6077H28.0742Z" fill="#F6F8FA"></path>
<path d="M46.752 19.116L53.256 11.58H56.784L49.68 19.668L57.744 28.5H54.024L47.832 21.66L46.752 22.788V28.5H43.92V11.58H46.752V19.116ZM64.575 21.444C64.783 21.412 64.943 21.332 65.055 21.204C65.183 21.06 65.247 20.892 65.247 20.7V20.532C65.247 19.924 65.047 19.452 64.647 19.116C64.263 18.78 63.711 18.612 62.991 18.612C62.271 18.612 61.687 18.788 61.239 19.14C60.791 19.476 60.567 19.956 60.567 20.58H57.927C57.927 20.004 58.047 19.476 58.287 18.996C58.543 18.516 58.895 18.108 59.343 17.772C59.791 17.42 60.327 17.148 60.951 16.956C61.575 16.764 62.255 16.668 62.991 16.668C64.591 16.668 65.807 17.028 66.639 17.748C67.471 18.468 67.887 19.532 67.887 20.94V28.5H65.343V26.604C65.055 27.228 64.559 27.74 63.855 28.14C63.151 28.54 62.327 28.74 61.383 28.74C60.823 28.74 60.303 28.66 59.823 28.5C59.343 28.324 58.927 28.084 58.575 27.78C58.239 27.476 57.975 27.124 57.783 26.724C57.591 26.308 57.495 25.852 57.495 25.356C57.495 24.396 57.799 23.62 58.407 23.028C59.031 22.42 59.959 22.036 61.191 21.876L64.575 21.444ZM60.135 25.02C60.135 25.516 60.311 25.916 60.663 26.22C61.031 26.524 61.527 26.676 62.151 26.676C62.631 26.676 63.071 26.604 63.471 26.46C63.871 26.3 64.207 26.084 64.479 25.812C64.751 25.54 64.959 25.228 65.103 24.876C65.263 24.508 65.343 24.108 65.343 23.676V22.836C65.151 22.964 64.679 23.076 63.927 23.172L61.863 23.412C61.303 23.476 60.871 23.644 60.567 23.916C60.279 24.188 60.135 24.556 60.135 25.02ZM72.7884 28.5H70.1484V16.86H72.6924V19.692C72.8204 18.86 73.2044 18.18 73.8444 17.652C74.4844 17.124 75.3004 16.86 76.2924 16.86H77.4204L77.3244 19.236H76.4124C75.2604 19.236 74.3644 19.58 73.7244 20.268C73.1004 20.94 72.7884 21.972 72.7884 23.364V28.5ZM81.3703 28.5H78.7303V16.86H81.2743V19.692C81.4023 18.86 81.7863 18.18 82.4263 17.652C83.0663 17.124 83.8823 16.86 84.8743 16.86H86.0023L85.9063 19.236H84.9943C83.8423 19.236 82.9463 19.58 82.3063 20.268C81.6823 20.94 81.3703 21.972 81.3703 23.364V28.5ZM93.2034 21.444C93.4114 21.412 93.5714 21.332 93.6834 21.204C93.8114 21.06 93.8754 20.892 93.8754 20.7V20.532C93.8754 19.924 93.6754 19.452 93.2754 19.116C92.8914 18.78 92.3394 18.612 91.6194 18.612C90.8994 18.612 90.3154 18.788 89.8674 19.14C89.4194 19.476 89.1954 19.956 89.1954 20.58H86.5554C86.5554 20.004 86.6754 19.476 86.9154 18.996C87.1714 18.516 87.5234 18.108 87.9714 17.772C88.4194 17.42 88.9554 17.148 89.5794 16.956C90.2034 16.764 90.8834 16.668 91.6194 16.668C93.2194 16.668 94.4354 17.028 95.2674 17.748C96.0994 18.468 96.5154 19.532 96.5154 20.94V28.5H93.9714V26.604C93.6834 27.228 93.1874 27.74 92.4834 28.14C91.7794 28.54 90.9554 28.74 90.0114 28.74C89.4514 28.74 88.9314 28.66 88.4514 28.5C87.9714 28.324 87.5554 28.084 87.2034 27.78C86.8674 27.476 86.6034 27.124 86.4114 26.724C86.2194 26.308 86.1234 25.852 86.1234 25.356C86.1234 24.396 86.4274 23.62 87.0354 23.028C87.6594 22.42 88.5874 22.036 89.8194 21.876L93.2034 21.444ZM88.7634 25.02C88.7634 25.516 88.9394 25.916 89.2914 26.22C89.6594 26.524 90.1554 26.676 90.7794 26.676C91.2594 26.676 91.6994 26.604 92.0994 26.46C92.4994 26.3 92.8354 26.084 93.1074 25.812C93.3794 25.54 93.5874 25.228 93.7314 24.876C93.8914 24.508 93.9714 24.108 93.9714 23.676V22.836C93.7794 22.964 93.3074 23.076 92.5554 23.172L90.4914 23.412C89.9314 23.476 89.4994 23.644 89.1954 23.916C88.9074 24.188 88.7634 24.556 88.7634 25.02ZM105.137 21.444C105.345 21.412 105.505 21.332 105.617 21.204C105.745 21.06 105.809 20.892 105.809 20.7V20.532C105.809 19.924 105.609 19.452 105.209 19.116C104.825 18.78 104.273 18.612 103.553 18.612C102.833 18.612 102.249 18.788 101.801 19.14C101.353 19.476 101.129 19.956 101.129 20.58H98.4889C98.4889 20.004 98.6089 19.476 98.8489 18.996C99.1049 18.516 99.4569 18.108 99.9049 17.772C100.353 17.42 100.889 17.148 101.513 16.956C102.137 16.764 102.817 16.668 103.553 16.668C105.153 16.668 106.369 17.028 107.201 17.748C108.033 18.468 108.449 19.532 108.449 20.94V28.5H105.905V26.604C105.617 27.228 105.121 27.74 104.417 28.14C103.713 28.54 102.889 28.74 101.945 28.74C101.385 28.74 100.865 28.66 100.385 28.5C99.9049 28.324 99.4889 28.084 99.1369 27.78C98.8009 27.476 98.5369 27.124 98.3449 26.724C98.1529 26.308 98.0569 25.852 98.0569 25.356C98.0569 24.396 98.3609 23.62 98.9689 23.028C99.5929 22.42 100.521 22.036 101.753 21.876L105.137 21.444ZM100.697 25.02C100.697 25.516 100.873 25.916 101.225 26.22C101.593 26.524 102.089 26.676 102.713 26.676C103.193 26.676 103.633 26.604 104.033 26.46C104.433 26.3 104.769 26.084 105.041 25.812C105.313 25.54 105.521 25.228 105.665 24.876C105.825 24.508 105.905 24.108 105.905 23.676V22.836C105.713 22.964 105.241 23.076 104.489 23.172L102.425 23.412C101.865 23.476 101.433 23.644 101.129 23.916C100.841 24.188 100.697 24.556 100.697 25.02ZM113.35 28.5H110.71V16.86H113.254V19.692C113.382 18.86 113.766 18.18 114.406 17.652C115.046 17.124 115.862 16.86 116.854 16.86H117.982L117.886 19.236H116.974C115.822 19.236 114.926 19.58 114.286 20.268C113.662 20.94 113.35 21.972 113.35 23.364V28.5Z" fill="#F6F8FA"></path>
</svg>
