<svg width="118" height="35" fill="none" xmlns="http://www.w3.org/2000/svg"><path d="M11.982 12.83h4.962L9.926 5.609H4.964v5.108l7.018 7.223V12.83Z" fill="#FF4600"/><path d="M4.963.5 0 5.607l4.964 5.109V5.608h4.962L4.963.5ZM26.02 17.938V12.83h-4.964L19 14.946l-2.056-2.115h-4.962v5.108L19 25.16l7.02-7.223Z" fill="#FF4600"/><path fill-rule="evenodd" clip-rule="evenodd" d="M28.074 5.608H9.926l7.018 7.223h4.112l7.018-7.223Zm4.964 5.106-7.019 7.224v9.339H11.982v-9.338l-7.018-7.223V34.5h28.074V10.715Z" fill="#F6F8FA"/><path d="M38 5.607 33.037.5l-4.963 5.108h4.964v5.106L38 5.607Z" fill="#FF4600"/><path d="m28.074 5.608-7.018 7.223h4.963v5.107l7.019-7.223V5.607h-4.964ZM46.752 19.116l6.504-7.536h3.528l-7.104 8.088 8.064 8.832h-3.72l-6.192-6.84-1.08 1.128V28.5H43.92V11.58h2.832v7.536Zm17.823 2.328a.767.767 0 0 0 .48-.24.735.735 0 0 0 .192-.504v-.168c0-.608-.2-1.08-.6-1.416-.384-.336-.936-.504-1.656-.504-.72 0-1.304.176-1.752.528-.448.336-.672.816-.672 1.44h-2.64c0-.576.12-1.104.36-1.584.256-.48.608-.888 1.056-1.224a4.91 4.91 0 0 1 1.608-.816 6.908 6.908 0 0 1 2.04-.288c1.6 0 2.816.36 3.648 1.08.832.72 1.248 1.784 1.248 3.192v7.56h-2.544v-1.896c-.288.624-.784 1.136-1.488 1.536-.704.4-1.528.6-2.472.6-.56 0-1.08-.08-1.56-.24a3.988 3.988 0 0 1-1.248-.72 3.393 3.393 0 0 1-.792-1.056 3.225 3.225 0 0 1-.288-1.368c0-.96.304-1.736.912-2.328.624-.608 1.552-.992 2.784-1.152l3.384-.432Zm-4.44 3.576c0 .496.176.896.528 1.2.368.304.864.456 1.488.456.48 0 .92-.072 1.32-.216.4-.16.736-.376 1.008-.648s.48-.584.624-.936c.16-.368.24-.768.24-1.2v-.84c-.192.128-.664.24-1.416.336l-2.064.24c-.56.064-.992.232-1.296.504-.288.272-.432.64-.432 1.104Zm12.653 3.48h-2.64V16.86h2.544v2.832a3.185 3.185 0 0 1 1.152-2.04c.64-.528 1.456-.792 2.448-.792h1.128l-.096 2.376h-.912c-1.152 0-2.048.344-2.688 1.032-.624.672-.936 1.704-.936 3.096V28.5Zm8.582 0h-2.64V16.86h2.544v2.832a3.185 3.185 0 0 1 1.152-2.04c.64-.528 1.456-.792 2.448-.792h1.128l-.096 2.376h-.912c-1.152 0-2.048.344-2.688 1.032-.624.672-.936 1.704-.936 3.096V28.5Zm11.833-7.056a.767.767 0 0 0 .48-.24.735.735 0 0 0 .192-.504v-.168c0-.608-.2-1.08-.6-1.416-.384-.336-.936-.504-1.656-.504-.72 0-1.304.176-1.752.528-.448.336-.672.816-.672 1.44h-2.64c0-.576.12-1.104.36-1.584.256-.48.608-.888 1.056-1.224a4.91 4.91 0 0 1 1.608-.816 6.908 6.908 0 0 1 2.04-.288c1.6 0 2.816.36 3.648 1.08.832.72 1.248 1.784 1.248 3.192v7.56h-2.544v-1.896c-.288.624-.784 1.136-1.488 1.536-.704.4-1.528.6-2.472.6-.56 0-1.08-.08-1.56-.24a3.988 3.988 0 0 1-1.248-.72 3.393 3.393 0 0 1-.792-1.056 3.225 3.225 0 0 1-.288-1.368c0-.96.304-1.736.912-2.328.624-.608 1.552-.992 2.784-1.152l3.384-.432Zm-4.44 3.576c0 .496.176.896.528 1.2.368.304.864.456 1.488.456.48 0 .92-.072 1.32-.216.4-.16.736-.376 1.008-.648s.48-.584.624-.936c.16-.368.24-.768.24-1.2v-.84c-.192.128-.664.24-1.416.336l-2.064.24c-.56.064-.992.232-1.296.504-.288.272-.432.64-.432 1.104Zm16.374-3.576a.767.767 0 0 0 .48-.24.735.735 0 0 0 .192-.504v-.168c0-.608-.2-1.08-.6-1.416-.384-.336-.936-.504-1.656-.504-.72 0-1.304.176-1.752.528-.448.336-.672.816-.672 1.44h-2.64c0-.576.12-1.104.36-1.584.256-.48.608-.888 1.056-1.224a4.912 4.912 0 0 1 1.608-.816 6.908 6.908 0 0 1 2.04-.288c1.6 0 2.816.36 3.648 1.08.832.72 1.248 1.784 1.248 3.192v7.56h-2.544v-1.896c-.288.624-.784 1.136-1.488 1.536-.704.4-1.528.6-2.472.6-.56 0-1.08-.08-1.56-.24a3.988 3.988 0 0 1-1.248-.72 3.393 3.393 0 0 1-.792-1.056 3.225 3.225 0 0 1-.288-1.368c0-.96.304-1.736.912-2.328.624-.608 1.552-.992 2.784-1.152l3.384-.432Zm-4.44 3.576c0 .496.176.896.528 1.2.368.304.864.456 1.488.456.48 0 .92-.072 1.32-.216.4-.16.736-.376 1.008-.648s.48-.584.624-.936c.16-.368.24-.768.24-1.2v-.84c-.192.128-.664.24-1.416.336l-2.064.24c-.56.064-.992.232-1.296.504-.288.272-.432.64-.432 1.104Zm12.653 3.48h-2.64V16.86h2.544v2.832a3.185 3.185 0 0 1 1.152-2.04c.64-.528 1.456-.792 2.448-.792h1.128l-.096 2.376h-.912c-1.152 0-2.048.344-2.688 1.032-.624.672-.936 1.704-.936 3.096V28.5Z" fill="#F6F8FA"/></svg>