<svg width="286" height="86" fill="none" xmlns="http://www.w3.org/2000/svg"><path d="M41.413 32.398c0 4.86-4.002 8.862-8.861 8.862-4.86 0-8.862-4.002-8.862-8.862s4.002-8.862 8.862-8.862 8.861 4.002 8.861 8.862ZM32.552 44.69c-4.86 0-8.862 4.002-8.862 8.862s4.002 8.861 8.862 8.861 8.861-4.002 8.861-8.861c0-4.86-4.002-8.862-8.861-8.862Zm53.455-1.715c0 23.726-19.152 42.878-42.878 42.878S.25 66.701.25 42.975 19.402.096 43.129.096c23.726 0 42.878 19.153 42.878 42.879Zm-11.434 0A31.354 31.354 0 0 0 43.129 11.53a31.354 31.354 0 0 0-31.445 31.445A31.354 31.354 0 0 0 43.13 74.419a31.354 31.354 0 0 0 31.444-31.444ZM53.705 44.69c-4.86 0-8.861 4.002-8.861 8.862s4.002 8.861 8.861 8.861c4.86 0 8.862-4.002 8.862-8.861 0-4.86-4.002-8.862-8.862-8.862Zm0-21.153c-4.86 0-8.861 4.002-8.861 8.861 0 4.86 4.002 8.862 8.861 8.862 4.86 0 8.862-4.002 8.862-8.862s-4.002-8.862-8.862-8.862Zm147.503-6.575c.286 0 .572.286.857.572v9.147c0 .572-.571.857-.857.857h-15.151c-.571 0-.857-.571-.857-.857v-8.862c0-.571.572-.857.857-.857h15.151Zm-.286 12.863h-29.157c-.286 0-.858.286-.858.858l-3.716 14.293-.286.857-4.574-15.15c0-.286-.571-.858-.857-.858h-11.435c-.285 0-.857.286-.857.858l-4.288 14.293-.286.857-.286-.857-1.715-7.147-1.715-7.146c0-.286-.572-.858-.858-.858h-22.868V17.534c0-.286-.572-.858-1.144-.572l-14.293 4.573c-.571 0-.857.286-.857.858v7.718h-3.716c-.286 0-.858.286-.858.858V41.83c0 .286.286.858.858.858h3.716v13.435c0 9.434 5.145 13.721 14.579 13.721 4.002 0 7.718-.857 10.29-2.286V56.124c0-.571-.571-.857-.857-.571-1.429.571-2.859.857-4.002.857-2.573 0-4.002-1.143-4.002-4.002V42.69h8.29c.286 0 .857-.286.857-.858v-9.147l10.863 36.018c0 .286.572.858.857.858h12.007c.285 0 .857-.286.857-.858l5.146-16.008 2.572 8.29 2.287 7.718c0 .286.572.858.858.858h12.006c.286 0 .857-.286.857-.858L185.2 32.684v36.018c0 .286.286.858.857.858h14.579c.286 0 .858-.286.858-.858V30.683c0-.286-.286-.858-.572-.858Zm19.152-12.863h-14.578c-.286 0-.858.286-.858.857v50.597c0 .286.286.858.858.858h14.578c.286 0 .858-.286.858-.858V17.534c0-.286-.286-.572-.858-.572Zm19.439 0h-15.151c-.286 0-.857.286-.857.857v8.862c0 .286.286.857.857.857h15.151c.286 0 .857-.285.857-.857v-9.148c0-.285-.285-.571-.857-.571Zm-.286 12.863h-14.579c-.286 0-.857.286-.857.858V68.13c0 .286.285.858.857.858h14.579c.286 0 .858-.286.858-.858V30.683c0-.286-.286-.858-.858-.858Zm46.023 19.439c0 10.862-9.147 20.296-22.011 20.296-12.578 0-21.725-9.434-21.725-20.296 0-10.863 9.147-20.296 22.011-20.296 12.578 0 21.725 9.433 21.725 20.296Zm-15.436.286c0-4.002-2.859-7.147-6.289-6.861-3.716 0-6.289 3.144-6.289 6.86 0 3.717 2.859 6.861 6.289 6.861 3.716 0 6.289-3.144 6.289-6.86Z" fill="#F22B44"/></svg>