<svg width="286" height="86" viewBox="0 0 286 86" fill="none" xmlns="http://www.w3.org/2000/svg">
<path d="M41.4135 32.3981C41.4135 37.2577 37.4115 41.2597 32.5519 41.2597C27.6923 41.2597 23.6903 37.2577 23.6903 32.3981C23.6903 27.5385 27.6923 23.5365 32.5519 23.5365C37.4115 23.5365 41.4135 27.5385 41.4135 32.3981ZM32.5519 44.69C27.6923 44.69 23.6903 48.692 23.6903 53.5516C23.6903 58.4111 27.6923 62.4131 32.5519 62.4131C37.4115 62.4131 41.4135 58.4111 41.4135 53.5516C41.4135 48.692 37.4115 44.69 32.5519 44.69ZM86.0073 42.9748C86.0073 66.701 66.8548 85.8535 43.1286 85.8535C19.4025 85.8535 0.25 66.701 0.25 42.9748C0.25 19.2486 19.4025 0.0961914 43.1286 0.0961914C66.8548 0.0961914 86.0073 19.2486 86.0073 42.9748ZM74.573 42.9748C74.573 25.5375 60.5659 11.5305 43.1286 11.5305C25.6913 11.5305 11.6843 25.5375 11.6843 42.9748C11.6843 60.4121 25.6913 74.4192 43.1286 74.4192C60.5659 74.4192 74.573 60.4121 74.573 42.9748ZM53.7054 44.69C48.8458 44.69 44.8438 48.692 44.8438 53.5516C44.8438 58.4111 48.8458 62.4131 53.7054 62.4131C58.5649 62.4131 62.567 58.4111 62.567 53.5516C62.567 48.692 58.5649 44.69 53.7054 44.69ZM53.7054 23.5365C48.8458 23.5365 44.8438 27.5385 44.8438 32.3981C44.8438 37.2577 48.8458 41.2597 53.7054 41.2597C58.5649 41.2597 62.567 37.2577 62.567 32.3981C62.567 27.5385 58.5649 23.5365 53.7054 23.5365ZM201.208 16.9618C201.494 16.9618 201.78 17.2476 202.065 17.5335V26.681C202.065 27.2527 201.494 27.5385 201.208 27.5385H186.057C185.486 27.5385 185.2 26.9668 185.2 26.681V17.8194C185.2 17.2476 185.772 16.9618 186.057 16.9618H201.208ZM200.922 29.8254H171.765C171.479 29.8254 170.907 30.1112 170.907 30.683L167.191 44.9758L166.905 45.8334L162.331 30.683C162.331 30.3971 161.76 29.8254 161.474 29.8254H150.039C149.754 29.8254 149.182 30.1112 149.182 30.683L144.894 44.9758L144.608 45.8334L144.322 44.9758L142.607 37.8294L140.892 30.683C140.892 30.3971 140.32 29.8254 140.034 29.8254H117.166V17.5335C117.166 17.2476 116.594 16.6759 116.022 16.9618L101.729 21.5355C101.158 21.5355 100.872 21.8214 100.872 22.3931V30.1112H97.1557C96.8699 30.1112 96.2981 30.3971 96.2981 30.9688V41.8314C96.2981 42.1173 96.584 42.689 97.1557 42.689H100.872V56.1243C100.872 65.5576 106.017 69.8454 115.451 69.8454C119.453 69.8454 123.169 68.9879 125.741 67.5586V56.1243C125.741 55.5526 125.17 55.2667 124.884 55.5526C123.455 56.1243 122.025 56.4101 120.882 56.4101C118.309 56.4101 116.88 55.2667 116.88 52.4081V42.689H125.17C125.456 42.689 126.027 42.4031 126.027 41.8314V32.684L136.89 68.702C136.89 68.9879 137.462 69.5596 137.747 69.5596H149.754C150.039 69.5596 150.611 69.2737 150.611 68.702L155.757 52.694L158.329 60.9839L160.616 68.702C160.616 68.9879 161.188 69.5596 161.474 69.5596H173.48C173.766 69.5596 174.337 69.2737 174.337 68.702L185.2 32.684V68.702C185.2 68.9879 185.486 69.5596 186.057 69.5596H200.636C200.922 69.5596 201.494 69.2737 201.494 68.702V30.683C201.494 30.3971 201.208 29.8254 200.922 29.8254ZM220.074 16.9618H205.496C205.21 16.9618 204.638 17.2476 204.638 17.8194V68.4162C204.638 68.702 204.924 69.2737 205.496 69.2737H220.074C220.36 69.2737 220.932 68.9879 220.932 68.4162V17.5335C220.932 17.2476 220.646 16.9618 220.074 16.9618ZM239.513 16.9618H224.362C224.076 16.9618 223.505 17.2476 223.505 17.8194V26.681C223.505 26.9668 223.791 27.5385 224.362 27.5385H239.513C239.799 27.5385 240.37 27.2527 240.37 26.681V17.5335C240.37 17.2476 240.085 16.9618 239.513 16.9618ZM239.227 29.8254H224.648C224.362 29.8254 223.791 30.1112 223.791 30.683V68.1303C223.791 68.4162 224.076 68.9879 224.648 68.9879H239.227C239.513 68.9879 240.085 68.702 240.085 68.1303V30.683C240.085 30.3971 239.799 29.8254 239.227 29.8254ZM285.25 49.2637C285.25 60.1263 276.103 69.5596 263.239 69.5596C250.661 69.5596 241.514 60.1263 241.514 49.2637C241.514 38.4011 250.661 28.9678 263.525 28.9678C276.103 28.9678 285.25 38.4011 285.25 49.2637ZM269.814 49.5496C269.814 45.5476 266.955 42.4031 263.525 42.689C259.809 42.689 257.236 45.8334 257.236 49.5496C257.236 53.2657 260.095 56.4101 263.525 56.4101C267.241 56.4101 269.814 53.2657 269.814 49.5496Z" fill="#F22B44"></path>
</svg>
