<svg width="386" height="64" viewBox="0 0 386 64" fill="none" xmlns="http://www.w3.org/2000/svg">
<path d="M157.097 2.00391C149.161 2.00391 140.596 6.88845 136.565 13.1507V2.00391H125.228V62.1213H136.565V33.9413C136.565 18.5362 147.146 12.7749 153.444 12.7749H165.662V2.00391H157.097Z" fill="#281F24"/>
<path d="M203.817 2.00391C195.881 2.00391 187.315 6.88845 183.285 13.1507V2.00391H171.948V62.1213H183.285V33.9413C183.285 18.5362 193.865 12.7749 200.164 12.7749H212.382V2.00391H203.817Z" fill="#281F24"/>
<path d="M270.816 46.7162V24.7984C270.816 6.13697 261.117 0 249.906 0H237.562C225.218 0 216.526 9.14286 216.526 18.2857H227.863C227.863 14.2779 232.397 10.771 238.696 10.771H246.253C257.464 10.771 259.228 15.6556 259.48 24.0469H238.948C224.21 24.0469 214.889 31.8121 214.889 42.8336V44.2113C214.889 59.4912 227.233 64 238.948 64C246.757 64 256.205 62.1213 260.487 55.6086C263.007 61.9961 269.934 62.1213 275.729 62.1213V51.3503C273.461 51.3503 270.816 50.5988 270.816 46.7162ZM242.601 53.229C230.76 53.229 226.225 50.724 226.225 43.7104C226.225 39.7025 228.493 33.5655 242.601 33.5655H259.48V43.4599C259.48 51.4755 247.639 53.229 242.601 53.229Z" fill="#281F24"/>
<path d="M334.265 46.7162V24.7984C334.265 6.13697 324.566 0 313.355 0H301.011C288.667 0 279.975 9.14286 279.975 18.2857H291.312C291.312 14.2779 295.847 10.771 302.145 10.771H309.703C320.913 10.771 322.677 15.6556 322.929 24.0469H302.397C287.659 24.0469 278.338 31.8121 278.338 42.8336V44.2113C278.338 59.4912 290.682 64 302.397 64C310.206 64 319.654 62.1213 323.936 55.6086C326.456 61.9961 333.384 62.1213 339.178 62.1213V51.3503C336.911 51.3503 334.265 50.5988 334.265 46.7162ZM306.05 53.229C294.209 53.229 289.674 50.724 289.674 43.7104C289.674 39.7025 291.942 33.5655 306.05 33.5655H322.929V43.4599C322.929 51.4755 311.088 53.229 306.05 53.229Z" fill="#281F24"/>
<path d="M377.434 2.00391C369.499 2.00391 360.933 6.88845 356.902 13.1507V2.00391H345.566V62.1213H356.902V33.9413C356.902 18.5362 367.483 12.7749 373.782 12.7749H386V2.00391H377.434Z" fill="#281F24"/>
<path fill-rule="evenodd" clip-rule="evenodd" d="M113.928 46.7162V24.7984C113.928 6.13697 104.229 0 93.0179 0H80.6734C68.329 0 59.6375 9.14286 59.6375 18.2857H70.9742C70.9742 14.2779 75.5089 10.771 81.8071 10.771H89.3649C100.576 10.771 102.339 15.6556 102.591 24.0469H82.059C67.3213 24.0469 58 31.8121 58 42.8336V44.2113C58 59.4912 70.3444 64 82.059 64C89.8688 64 99.316 62.1213 103.599 55.6086C106.118 61.9961 113.046 62.1213 118.84 62.1213V51.3503C116.573 51.3503 113.928 50.5988 113.928 46.7162ZM69.3367 43.7104C69.3367 50.724 73.8714 53.229 85.712 53.229C90.7505 53.229 102.591 51.4755 102.591 43.4599V33.5655H85.712C71.604 33.5655 69.3367 39.7025 69.3367 43.7104Z" fill="#281F24"/>
<path d="M11.4151 32.9919H22.5472L45.3104 62H60L32.8709 28.3697L54.143 2H39.6129L22.5472 23.7475H11.4151V2H0V25.7919V30.9475V62H11.4151V32.9919Z" fill="#281F24"/>
</svg>
