<svg width="307" height="114" viewBox="0 0 307 114" fill="none" xmlns="http://www.w3.org/2000/svg">
<path opacity="0.8" d="M152.363 113.715C151.794 113.715 151.084 113.573 150.657 113.288L145.114 110.01C144.261 109.583 144.688 109.44 144.972 109.298C146.109 108.87 146.251 108.87 147.53 108.158C147.673 108.158 147.815 108.158 147.957 108.158L152.221 110.723C152.363 110.865 152.647 110.865 152.789 110.723L169.561 101.033C169.703 100.89 169.845 100.748 169.845 100.605V81.2252C169.845 81.0827 169.703 80.7977 169.561 80.7977L152.789 71.1077C152.647 70.9652 152.363 70.9652 152.221 71.1077L135.449 80.7977C135.307 80.9402 135.165 81.0827 135.165 81.2252V100.463C135.165 100.605 135.307 100.89 135.449 100.89L139.998 103.598C142.556 104.88 143.977 103.313 143.977 101.888V82.9352C143.977 82.6502 144.261 82.5077 144.404 82.5077H146.536C146.82 82.5077 146.962 82.6502 146.962 82.9352V102.03C146.962 105.308 145.114 107.303 141.987 107.303C140.992 107.303 140.282 107.303 138.15 106.305L133.744 103.74C132.607 103.17 132.038 101.888 132.038 100.748V81.2252C132.038 79.9427 132.749 78.8027 133.744 78.2327L150.515 68.5427C151.51 67.9727 152.931 67.9727 154.068 68.5427L170.84 78.2327C171.977 78.8027 172.545 80.0852 172.545 81.2252V100.463C172.545 101.745 171.835 102.885 170.84 103.455L154.068 113.145C153.642 113.573 153.073 113.715 152.363 113.715Z" fill="#18AFDD"/>
<path opacity="0.8" d="M157.622 100.463C150.231 100.463 148.667 97.0427 148.667 94.3352C148.667 94.0502 148.952 93.9077 149.094 93.9077H151.226C151.51 93.9077 151.652 94.0502 151.652 94.3352C151.936 96.4727 152.931 97.6127 157.337 97.6127C160.891 97.6127 162.454 96.7577 162.454 94.9052C162.454 93.7652 162.028 93.0527 156.485 92.4827C151.936 92.0552 149.094 91.0577 149.094 87.3527C149.094 83.9327 151.936 81.9377 156.769 81.9377C162.17 81.9377 164.87 83.7902 165.155 87.7802C165.155 87.9227 165.155 88.0652 165.012 88.2077C164.87 88.3502 164.728 88.3502 164.586 88.3502H162.454C162.17 88.3502 162.028 88.2077 162.028 87.9227C161.459 85.6427 160.18 84.9302 156.769 84.9302C152.931 84.9302 152.505 86.2127 152.505 87.2102C152.505 88.4927 153.074 88.7777 158.19 89.4902C163.307 90.2027 165.865 91.2002 165.865 94.7627C166.007 98.3252 162.88 100.463 157.622 100.463ZM178.088 79.9427H178.657C179.083 79.9427 179.225 79.6577 179.225 79.3727C179.225 78.9452 178.941 78.9452 178.657 78.9452H178.088V79.9427ZM177.378 78.3752H178.657C179.083 78.3752 179.936 78.3752 179.936 79.3727C179.936 80.0852 179.51 80.2277 179.225 80.2277C179.794 80.2277 179.794 80.6552 179.794 81.0827C179.794 81.3677 179.936 81.9377 179.936 82.0802H179.225C179.225 81.9377 179.083 80.9402 179.083 80.9402C179.083 80.7977 178.941 80.6552 178.657 80.6552H178.088V82.0802H177.378V78.3752ZM175.956 80.2277C175.956 81.7952 177.236 82.9352 178.657 82.9352C180.22 82.9352 181.357 81.6527 181.357 80.2277C181.357 78.6602 180.078 77.5202 178.657 77.5202C177.093 77.5202 175.956 78.6602 175.956 80.2277ZM181.784 80.2277C181.784 81.9377 180.362 83.5052 178.515 83.5052C176.809 83.5052 175.246 82.0802 175.246 80.2277C175.246 78.3752 176.809 76.9502 178.515 76.9502C180.362 76.9502 181.784 78.3752 181.784 80.2277Z" fill="#18AFDD"/>
<path opacity="0.8" fill-rule="evenodd" clip-rule="evenodd" d="M100.343 38.1897C100.343 37.4772 99.9171 36.7647 99.2064 36.3372L81.4402 26.0772C81.156 25.9347 80.8717 25.7922 80.4453 25.7922H80.3032C80.0189 25.7922 79.5925 25.9347 79.3083 26.0772L61.5421 36.3372C60.8314 36.7647 60.405 37.4772 60.405 38.1897V65.6922C60.405 66.1197 60.5472 66.4047 60.9735 66.5472C61.2578 66.6897 61.6842 66.6897 62.1106 66.5472L72.7703 60.5622C73.481 60.1347 73.9073 59.4222 73.9073 58.7097V45.8847C73.9073 45.1722 74.3337 44.4597 75.0444 44.0322L79.5925 41.4672C79.8768 41.3247 80.3032 41.1822 80.7296 41.1822C81.156 41.1822 81.4402 41.3247 81.8666 41.4672L86.4147 44.0322C87.1254 44.4597 87.5518 45.1722 87.5518 45.8847V58.7097C87.5518 59.4222 87.9782 60.1347 88.6888 60.5622L99.3485 66.5472C99.6328 66.6897 100.059 66.6897 100.486 66.5472C100.77 66.4047 101.054 65.9772 101.054 65.6922L100.343 38.1897ZM184.484 52.4397C184.484 52.5822 184.342 52.8672 184.2 52.8672L178.088 56.4297C177.946 56.5722 177.662 56.5722 177.52 56.4297L171.408 52.8672C171.266 52.7247 171.124 52.5822 171.124 52.4397V45.4572C171.124 45.3147 171.266 45.0297 171.408 45.0297L177.52 41.4672C177.662 41.3247 177.946 41.3247 178.088 41.4672L184.2 45.0297C184.342 45.1722 184.484 45.3147 184.484 45.4572V52.4397ZM186.19 0.427188C185.905 0.284688 185.479 0.284688 185.053 0.427188C184.768 0.569688 184.484 0.997187 184.484 1.28219V28.4997C184.484 28.7847 184.342 29.0697 184.058 29.2122C183.774 29.3547 183.489 29.3547 183.347 29.2122L178.941 26.6472C178.23 26.2197 177.52 26.2197 176.809 26.6472L159.043 36.9072C158.332 37.3347 157.906 38.0472 157.906 38.7597V59.2797C157.906 59.9922 158.332 60.7047 159.043 61.1322L176.809 71.3922C177.52 71.8197 178.23 71.8197 178.941 71.3922L196.707 61.1322C197.418 60.7047 197.844 59.9922 197.844 59.2797V8.26469C197.844 7.55219 197.418 6.83969 196.707 6.41219L186.19 0.427188ZM245.458 45.3147C246.168 44.8872 246.595 44.1747 246.595 43.4622V38.4747C246.595 37.7622 246.168 37.0497 245.458 36.6222L227.692 26.3622C226.981 25.9347 226.27 25.9347 225.56 26.3622L207.793 36.6222C207.083 37.0497 206.656 37.7622 206.656 38.4747V58.9947C206.656 59.7072 207.083 60.4197 207.793 60.8472L225.56 70.8222C226.27 71.2497 226.981 71.2497 227.692 70.8222L238.351 64.8372C238.636 64.6947 238.92 64.2672 238.92 63.8397C238.92 63.4122 238.778 63.1272 238.351 62.8422L220.443 52.5822C220.159 52.4397 219.874 52.0122 219.874 51.7272V45.3147C219.874 44.8872 220.017 44.6022 220.443 44.3172L225.986 41.3247C226.27 41.1822 226.697 41.1822 227.123 41.3247L232.666 44.4597C232.95 44.6022 233.235 45.0297 233.235 45.3147V50.3022C233.235 50.7297 233.377 51.0147 233.803 51.2997C234.087 51.4422 234.514 51.4422 234.94 51.2997L245.458 45.3147Z" fill="#18AFDD"/>
<path opacity="0.8" fill-rule="evenodd" clip-rule="evenodd" d="M226.412 44.3168C226.554 44.1743 226.697 44.1743 226.839 44.3168L230.25 46.3118C230.392 46.4543 230.392 46.4543 230.392 46.5968V50.5868C230.392 50.7293 230.25 50.8718 230.25 50.8718L226.839 52.8668C226.697 53.0093 226.554 53.0093 226.412 52.8668L223.001 50.8718C222.859 50.7293 222.859 50.7293 222.859 50.5868V46.5968C222.859 46.4543 223.001 46.3118 223.001 46.3118L226.412 44.3168Z" fill="#18AFDD"/>
<path opacity="0.8" fill-rule="evenodd" clip-rule="evenodd" d="M128.201 25.5071C128.911 25.0796 129.764 25.0796 130.475 25.5071L148.952 36.1946C149.662 36.6221 150.089 37.3346 150.089 38.1896V59.4221C150.089 60.2771 149.662 60.9896 148.952 61.4171L130.475 72.1046C129.764 72.5321 128.911 72.5321 128.201 72.1046L109.724 61.4171C109.013 60.9896 108.587 60.2771 108.587 59.4221V38.0472C108.587 37.1922 109.013 36.4796 109.724 36.0521L128.201 25.5071Z" fill="#18AFDD"/>
</svg>
