<svg width="307" height="114" viewBox="0 0 307 114" fill="none" xmlns="http://www.w3.org/2000/svg">
<path opacity="0.8" fill-rule="evenodd" clip-rule="evenodd" d="M230.534 84.2179V93.7654H247.732C251.285 93.7654 257.255 91.2004 257.539 83.9329V80.2279C257.539 73.9579 252.564 70.3954 247.732 70.3954H239.204V65.9779H256.118V56.2879H239.915C235.651 56.2879 230.108 59.8504 230.108 66.2629V69.5404C230.108 76.0954 235.651 79.3729 239.915 79.3729C251.712 79.3729 237.072 79.3729 248.016 79.3729V84.0754L230.534 84.2179ZM138.576 81.9379C138.576 81.9379 147.815 81.0829 147.815 69.1129C147.815 57.1429 136.729 56.0029 136.729 56.0029H116.546V93.7654H126.638V84.6454L135.307 93.7654H150.231L138.576 81.9379ZM134.597 74.2429H126.638V65.5504H134.739C134.739 65.5504 137.013 66.4054 137.013 69.8254C137.013 73.2454 134.597 74.2429 134.597 74.2429ZM172.545 56.4304H162.312C155.064 56.4304 152.505 63.1279 152.505 66.2629V93.9079H162.739V87.3529H172.403V93.9079H182.352V66.2629C182.352 58.1404 175.104 56.4304 172.545 56.4304ZM172.403 76.5229H162.739V67.4029C162.739 67.4029 162.739 65.2654 166.007 65.2654H169.561C172.403 65.2654 172.403 67.4029 172.403 67.4029V76.5229Z" fill="#18AFDD"/>
<path opacity="0.8" d="M197.703 56.4307H187.043V93.9082H197.703V56.4307Z" fill="#18AFDD"/>
<path opacity="0.8" fill-rule="evenodd" clip-rule="evenodd" d="M212.626 84.2182V56.4307H201.966V84.2182V93.9082H212.626H226.981V84.2182H212.626Z" fill="#18AFDD"/>
<path opacity="0.8" fill-rule="evenodd" clip-rule="evenodd" d="M53.2988 93.908H94.8007C94.8007 93.908 86.8414 57.428 113.135 42.608C118.821 39.758 137.013 29.3555 166.86 51.5855C167.855 50.7305 168.708 50.1605 168.708 50.1605C168.708 50.1605 141.419 22.658 111.003 25.6505C95.7956 27.0755 76.8923 41.0405 65.9484 59.5655C54.8623 78.233 53.2988 93.908 53.2988 93.908Z" fill="#18AFDD"/>
<path opacity="0.8" fill-rule="evenodd" clip-rule="evenodd" d="M53.2988 93.908H94.8007C94.8007 93.908 86.8414 57.428 113.135 42.608C118.821 39.758 137.013 29.3555 166.86 51.5855C167.855 50.7305 168.708 50.1605 168.708 50.1605C168.708 50.1605 141.419 22.658 111.003 25.6505C95.7956 27.0755 76.8923 41.0405 65.9484 59.5655C54.8623 78.233 53.2988 93.908 53.2988 93.908Z" fill="#18AFDD"/>
<path opacity="0.8" fill-rule="evenodd" clip-rule="evenodd" d="M53.2988 93.9075H94.8007C94.8007 93.9075 86.8414 57.4275 113.135 42.6075C118.821 39.7575 137.013 29.355 166.86 51.585C167.855 50.73 168.708 50.16 168.708 50.16C168.708 50.16 141.419 22.6575 111.003 25.65C95.6535 27.075 76.8923 41.04 65.8062 59.565C54.8623 78.2325 53.2988 93.9075 53.2988 93.9075ZM139.714 28.6425L139.856 25.08C139.429 24.795 138.008 24.225 134.739 23.2275L134.597 26.79C136.303 27.36 138.008 27.93 139.714 28.6425Z" fill="#18AFDD"/>
<path opacity="0.8" fill-rule="evenodd" clip-rule="evenodd" d="M134.739 39.9003L134.597 43.1778C136.303 43.1778 138.008 43.4628 139.856 43.7478L139.998 40.4703C138.15 40.1853 136.303 40.0428 134.739 39.9003ZM115.267 23.3703H115.836L114.841 20.0928C113.278 20.0928 111.572 20.2353 109.866 20.3778L110.861 23.5128C112.283 23.3703 113.704 23.3703 115.267 23.3703ZM117.826 42.8928L118.963 46.5978C120.526 45.8853 121.947 45.1728 123.511 44.7453L122.374 41.1828C120.668 41.7528 119.105 42.3228 117.826 42.8928ZM93.9479 28.9278L91.5317 25.2228C90.2526 25.9353 88.8313 26.6478 87.41 27.5028L89.8262 31.2078C91.2475 30.3528 92.5266 29.6403 93.9479 28.9278ZM104.75 52.7253L107.308 56.5728C108.161 55.2903 109.298 54.0078 110.435 52.8678L108.019 49.1628C106.74 50.3028 105.603 51.5853 104.75 52.7253ZM97.0748 69.8253L101.339 73.2453C101.481 71.1078 101.907 69.1128 102.476 66.9753L98.6382 63.9828C97.9276 65.9778 97.5012 67.9728 97.0748 69.8253ZM74.0498 44.6028L70.3544 41.3253C68.9331 42.6078 67.6539 44.0328 66.5169 45.3153L70.4965 48.8778C71.6336 47.4528 72.9127 46.0278 74.0498 44.6028ZM58.2734 68.4003L52.3039 66.1203C51.309 68.4003 50.172 71.1078 49.7456 72.5328L55.7151 74.8128C56.2836 72.9603 57.4206 70.2528 58.2734 68.4003ZM96.3641 83.2203C96.5063 86.0703 96.7905 88.3503 96.9326 89.9178L103.186 92.1978C102.76 90.0603 102.191 87.7803 101.907 85.3578L96.3641 83.2203Z" fill="#18AFDD"/>
</svg>
