<svg width="308" height="114" viewBox="0 0 308 114" fill="none" xmlns="http://www.w3.org/2000/svg">
<path opacity="0.8" d="M208.269 56.9997C208.269 49.7322 199.173 42.8922 185.386 38.6172C188.513 24.5096 187.092 13.2521 180.838 9.54715C179.417 8.69215 177.711 8.26465 175.863 8.26465V13.2521C176.858 13.2521 177.711 13.3946 178.422 13.8221C181.406 15.5321 182.686 22.2296 181.691 30.6372C181.406 32.7747 180.98 34.9122 180.554 37.1922C176.148 36.1947 171.457 35.3396 166.483 34.7696C163.498 30.6371 160.371 26.9322 157.244 23.6547C164.493 16.9572 171.315 13.2521 175.863 13.2521V8.40715C169.752 8.40715 161.793 12.8246 153.691 20.3771C145.732 12.8246 137.773 8.54965 131.661 8.54965V13.5371C136.209 13.5371 143.031 17.2421 150.28 23.9396C147.153 27.2171 144.026 30.9221 141.184 35.0547C136.209 35.6247 131.377 36.4797 127.113 37.4772C126.544 35.1972 126.26 33.0597 125.976 31.0646C124.981 22.5146 126.26 15.9596 129.245 14.2496C129.955 13.8221 130.808 13.6796 131.803 13.6796V8.54965C129.955 8.54965 128.25 8.97715 126.829 9.83215C120.575 13.3946 119.154 24.6522 122.423 38.7597C108.636 43.0347 99.6819 49.8747 99.6819 56.9997C99.6819 64.2672 108.778 71.1072 122.565 75.3822C119.438 89.4897 120.859 100.747 127.113 104.452C128.534 105.307 130.24 105.735 132.087 105.735C138.199 105.735 146.158 101.317 154.26 93.7647C162.361 101.317 170.32 105.592 176.432 105.592C178.28 105.592 179.985 105.165 181.406 104.31C187.66 100.747 189.081 89.4897 185.812 75.3822C199.315 71.1072 208.269 64.2672 208.269 56.9997ZM179.417 42.1797C178.564 45.0297 177.569 48.0222 176.432 51.0147C175.579 49.3047 174.584 47.4522 173.589 45.7422C172.594 44.0322 171.457 42.1796 170.462 40.4697C173.447 40.8972 176.432 41.4672 179.417 42.1797ZM169.183 65.8347C167.478 68.8272 165.63 71.6772 163.782 74.3847C160.513 74.6697 157.102 74.8122 153.691 74.8122C150.28 74.8122 147.011 74.6697 143.742 74.3847C141.894 71.6772 140.047 68.9697 138.341 65.9772C136.636 63.1272 135.072 60.1347 133.793 57.1422C135.214 54.1497 136.778 51.1572 138.341 48.3072C140.047 45.3147 141.894 42.4646 143.742 39.7572C147.011 39.4722 150.422 39.3297 153.833 39.3297C157.244 39.3297 160.513 39.4722 163.782 39.7572C165.63 42.4646 167.478 45.1722 169.183 48.1647C170.889 51.0147 172.452 54.0072 173.731 56.9997C172.452 59.9922 170.889 62.9847 169.183 65.8347ZM176.432 62.9847C177.569 65.9772 178.706 68.9697 179.559 71.8197C176.716 72.5322 173.589 73.1022 170.462 73.5297C171.599 71.8197 172.594 70.1097 173.589 68.2572C174.442 66.5472 175.437 64.6947 176.432 62.9847ZM153.833 86.6397C151.701 84.5022 149.712 82.0797 147.722 79.5147C149.712 79.6572 151.701 79.6572 153.833 79.6572C155.965 79.6572 157.955 79.6572 159.945 79.5147C157.955 82.2222 155.965 84.5022 153.833 86.6397ZM137.346 73.6722C134.219 73.2447 131.093 72.6747 128.25 71.9622C129.103 69.1122 130.098 66.1197 131.235 63.1272C132.087 64.8372 133.082 66.6897 134.077 68.3997C135.214 70.1097 136.351 71.9622 137.346 73.6722ZM153.833 27.3597C155.965 29.4972 157.955 31.9197 159.945 34.4847C157.955 34.3422 155.965 34.3422 153.833 34.3422C151.701 34.3422 149.712 34.3422 147.722 34.4847C149.712 31.7772 151.701 29.4972 153.833 27.3597ZM137.346 40.4697C136.209 42.1796 135.214 43.8897 134.219 45.7422C133.224 47.4522 132.23 49.3047 131.377 51.0147C130.24 48.0222 129.103 45.0297 128.25 42.1797C131.093 41.4672 134.219 40.8972 137.346 40.4697ZM117.306 68.2572C109.489 64.8372 104.372 60.5622 104.372 56.9997C104.372 53.4372 109.489 49.0197 117.306 45.7422C119.154 44.8872 121.286 44.1747 123.418 43.4622C124.697 47.8797 126.402 52.2972 128.392 56.9997C126.402 61.5597 124.697 66.1197 123.418 70.5372C121.286 69.8247 119.154 69.1122 117.306 68.2572ZM129.245 100.035C126.26 98.3247 124.981 91.6272 125.976 83.2197C126.26 81.0822 126.687 78.9447 127.113 76.6647C131.519 77.6622 136.209 78.5172 141.184 79.0872C144.168 83.2197 147.295 86.9247 150.422 90.2022C143.174 96.8997 136.351 100.605 131.803 100.605C130.666 100.605 129.813 100.462 129.245 100.035ZM181.833 83.0772C182.828 91.6272 181.549 98.1822 178.564 99.8922C177.853 100.32 177 100.462 176.005 100.462C171.457 100.462 164.635 96.7572 157.387 90.0597C160.513 86.7822 163.64 83.0772 166.483 78.9447C171.457 78.3747 176.29 77.5197 180.554 76.5222C181.122 78.9447 181.549 81.0822 181.833 83.0772ZM190.361 68.2572C188.513 69.1122 186.381 69.8247 184.249 70.5372C182.97 66.1197 181.264 61.7022 179.274 56.9997C181.264 52.4397 182.97 47.8797 184.249 43.4622C186.381 44.1747 188.513 44.8872 190.503 45.7422C198.32 49.1622 203.437 53.4372 203.437 56.9997C203.294 60.5622 198.178 64.9797 190.361 68.2572Z" fill="#18AFDD"/>
<path opacity="0.8" d="M153.833 67.1168C159.376 67.1168 163.925 62.5568 163.925 56.9993C163.925 51.4418 159.376 46.8818 153.833 46.8818C148.29 46.8818 143.742 51.4418 143.742 56.9993C143.742 62.5568 148.148 67.1168 153.833 67.1168Z" fill="#18AFDD"/>
</svg>
